# xmcd
#
# Track frame offsets:
#	150
#	15103
#	29045
#	43422
#	56267
#	70152
#	87527
#	100977
#	115826
#	135599
#	151157
#	165762
#	183834
#	198715
#	214927
#	225531
#
# Disc length: 3188 seconds
#
# Revision: 1
# Processed by: cddbd v1.5.2PL0 Copyright (c) Steve Scherf et al.
# Submitted via: audiograbber 1.83.01
#
DISCID=d00c7210
DTITLE=Various Artist - CDX 678
DYEAR=2019
DGENRE=Country
TTITLE0=Maren Morris - The Bones
TTITLE1=Jackson Michelson - Stay Over
TTITLE2=Brooke Lee - Be Yourself
TTITLE3=Bumper Stickers On A Bentley - Bumper Stickers On A Bentley
TTITLE4=Zach Blair - Candle To You
TTITLE5=Mikayla Lane - Diamonds
TTITLE6=Cody Purvis - Drinkin' Terms
TTITLE7=Mags - Emotional Honesty
TTITLE8=Jeff Bates - If I Get Drunk Tonight
TTITLE9=Katlyn Lowe - Last Time
TTITLE10=Andrew Hopson - Paint The Town Redneck
TTITLE11=Carvin Walls - Sometimes I Lie
TTITLE12=Amy and Adams - Soon
TTITLE13=Jeff Coltrec - This Fictitious Story's True
TTITLE14=The Don Mealer Band - Texas Style
TTITLE15=Jeremy Wright Band - Walk On Over To Me
EXTD=
EXTT0=
EXTT1=
EXTT2=
EXTT3=
EXTT4=
EXTT5=
EXTT6=
EXTT7=
EXTT8=
EXTT9=
EXTT10=
EXTT11=
EXTT12=
EXTT13=
EXTT14=
EXTT15=
PLAYORDER=
